<svg width="250" height="126" viewBox="0 0 250 126" fill="none" xmlns="http://www.w3.org/2000/svg">
<path d="M234.561 18.54L233.915 18.8051C233.653 18.9129 233.129 19.0398 232.485 19.1703C231.833 19.3026 231.032 19.4431 230.197 19.5749C228.533 19.8377 226.721 20.0679 225.67 20.1278C186.351 23.9299 147.462 31.167 109.745 47.6955L109.645 47.4665L109.745 47.6955C72.9821 63.8031 38.5227 84.3904 8.18014 112.91C8.17991 112.91 8.17968 112.91 8.17946 112.911L8.05304 113.032C5.83895 115.153 3.58062 117.316 1.80284 119.791L1.80099 119.794L1.80097 119.794C1.74559 119.869 1.68957 119.944 1.63338 120.019C1.20626 120.592 0.769142 121.179 0.525019 121.857C0.257488 122.601 0.222255 123.462 0.75941 124.527C0.921379 124.753 1.10548 124.886 1.31382 124.952C1.53019 125.02 1.79627 125.022 2.12709 124.94C2.79762 124.775 3.66741 124.286 4.77545 123.482L4.77823 123.48C6.42997 122.315 8.119 121.077 9.68883 119.725C9.68902 119.725 9.68921 119.725 9.68939 119.725L9.85254 119.914C36.4699 96.7128 65.441 77.9777 96.3235 62.6992C135.337 43.3968 176.064 34.0575 217.296 27.748L234.561 18.54ZM234.561 18.54L233.894 18.3349C228.382 16.6404 222.981 14.994 217.637 13.3651C212.89 11.9181 208.188 10.4849 203.494 9.04377L203.493 9.04341C201.503 8.4434 200.114 8.02183 197.79 6.82907L197.788 6.82776C196.91 6.39009 195.582 5.69908 194.656 4.89282C194.192 4.48852 193.853 4.07593 193.708 3.67452C193.572 3.29559 193.602 2.91386 193.907 2.51505M234.561 18.54L193.907 2.51505M193.907 2.51505C194.573 1.80526 195.153 1.27481 195.985 0.988418C196.823 0.699931 197.951 0.648529 199.729 0.983915C208.652 2.71902 217.154 5.82567 225.619 8.91898C225.927 9.03124 226.234 9.14349 226.541 9.25565C234.276 12.0871 240.12 14.3745 246.782 17.3211C248.299 17.992 249.063 18.8568 249.246 19.844C249.432 20.8448 249.037 22.0561 248.035 23.4527C247.891 23.6528 247.748 23.8534 247.604 24.0542C245.914 26.4128 244.207 28.7952 242.182 30.7836L242.181 30.7845C236.428 36.4901 230.601 42.0731 224.76 47.6683C222.527 49.8075 220.293 51.9484 218.06 54.0987L218.059 54.0997C217.844 54.3081 217.644 54.5083 217.448 54.7037C216.722 55.4281 216.062 56.0865 215.03 56.8569L193.907 2.51505Z" fill="#C4C4C4" stroke="black" stroke-width="0.5"/>
</svg>
