<svg width="3" height="14" viewBox="0 0 3 14" fill="none" xmlns="http://www.w3.org/2000/svg">
<path d="M1.75 1.75L1.75 1.7575M1.75 7L1.75 7.0075M1.75 12.25L1.75 12.2575M1.75 2.5C1.33579 2.5 1 2.16421 1 1.75C1 1.33579 1.33579 1 1.75 1C2.16421 1 2.5 1.33579 2.5 1.75C2.5 2.16421 2.16421 2.5 1.75 2.5ZM1.75 7.75C1.33579 7.75 1 7.41421 1 7C1 6.58579 1.33579 6.25 1.75 6.25C2.16421 6.25 2.5 6.58579 2.5 7C2.5 7.41421 2.16421 7.75 1.75 7.75ZM1.75 13C1.33579 13 0.999999 12.6642 1 12.25C1 11.8358 1.33579 11.5 1.75 11.5C2.16421 11.5 2.5 11.8358 2.5 12.25C2.5 12.6642 2.16421 13 1.75 13Z" stroke="white" stroke-linecap="round" stroke-linejoin="round"/>
</svg>
