<svg width="15" height="15" viewBox="0 0 15 15" fill="none" xmlns="http://www.w3.org/2000/svg">
<path d="M7.49438 1.87501C6.3821 1.87612 5.29512 2.20696 4.37083 2.82572C3.44654 3.44448 2.72645 4.32337 2.30157 5.35131C1.87669 6.37924 1.7661 7.51006 1.98377 8.60083C2.20145 9.69161 2.73762 10.6934 3.52452 11.4795C4.31141 12.2656 5.3137 12.8007 6.40469 13.0173C7.49568 13.2339 8.62639 13.1222 9.65389 12.6963C10.6814 12.2704 11.5596 11.5494 12.1774 10.6245C12.7952 9.6996 13.125 8.61229 13.125 7.50001C13.1254 6.76075 12.9799 6.02867 12.697 5.34568C12.4141 4.66269 11.9993 4.0422 11.4763 3.51973C10.9533 2.99725 10.3324 2.58305 9.64913 2.30083C8.96586 2.0186 8.23364 1.8739 7.49438 1.87501ZM7.5 11.875C6.63471 11.875 5.78885 11.6184 5.06938 11.1377C4.34992 10.657 3.78916 9.97367 3.45803 9.17425C3.1269 8.37482 3.04026 7.49515 3.20907 6.64649C3.37788 5.79782 3.79456 5.01827 4.40641 4.40641C5.01826 3.79456 5.79782 3.37788 6.64648 3.20907C7.49515 3.04026 8.37482 3.1269 9.17424 3.45803C9.97367 3.78917 10.657 4.34992 11.1377 5.06939C11.6184 5.78885 11.875 6.63471 11.875 7.50001C11.8752 8.07458 11.7621 8.64356 11.5423 9.17443C11.3225 9.7053 11.0002 10.1877 10.5939 10.594C10.1877 11.0002 9.7053 11.3225 9.17443 11.5423C8.64356 11.7621 8.07458 11.8752 7.5 11.875ZM9.44063 8.62501H10.38C10.154 9.205 9.75818 9.70326 9.24431 10.0545C8.73043 10.4058 8.12247 10.5938 7.5 10.5938C6.87754 10.5938 6.26957 10.4058 5.7557 10.0545C5.24182 9.70326 4.84599 9.205 4.62 8.62501H5.55938C5.75512 8.96682 6.03767 9.25087 6.37844 9.44841C6.71921 9.64596 7.10611 9.75 7.5 9.75C7.89389 9.75 8.2808 9.64596 8.62157 9.44841C8.96234 9.25087 9.24489 8.96682 9.44063 8.62501ZM4.6875 6.09376C4.6875 5.92688 4.73699 5.76375 4.8297 5.62499C4.92241 5.48624 5.05419 5.37809 5.20836 5.31423C5.36254 5.25037 5.53219 5.23366 5.69586 5.26622C5.85953 5.29877 6.00987 5.37913 6.12787 5.49713C6.24587 5.61514 6.32623 5.76548 6.35879 5.92915C6.39135 6.09282 6.37464 6.26247 6.31078 6.41665C6.24691 6.57082 6.13877 6.7026 6.00001 6.79531C5.86126 6.88802 5.69813 6.93751 5.53125 6.93751C5.30748 6.93751 5.09286 6.84861 4.93463 6.69038C4.7764 6.53214 4.6875 6.31753 4.6875 6.09376ZM8.625 6.09376C8.625 5.92688 8.67449 5.76375 8.7672 5.62499C8.85991 5.48624 8.99169 5.37809 9.14586 5.31423C9.30004 5.25037 9.46969 5.23366 9.63336 5.26622C9.79703 5.29877 9.94737 5.37913 10.0654 5.49713C10.1834 5.61514 10.2637 5.76548 10.2963 5.92915C10.3288 6.09282 10.3121 6.26247 10.2483 6.41665C10.1844 6.57082 10.0763 6.7026 9.93751 6.79531C9.79876 6.88802 9.63563 6.93751 9.46875 6.93751C9.24498 6.93751 9.03036 6.84861 8.87213 6.69038C8.7139 6.53214 8.625 6.31753 8.625 6.09376Z" fill="white"/>
</svg>
